<svg width="1391" height="1203" xmlns="http://www.w3.org/2000/svg" xmlns:xlink="http://www.w3.org/1999/xlink" xml:space="preserve" overflow="hidden"><g transform="translate(-1384 -543)"><path d="M5.15625-1.63054e-06 5.1566 1115.47-5.1559 1115.47-5.15625 1.63054e-06ZM15.4691 1110.31 0.000360892 1141.25-15.4684 1110.31Z" fill="#0A1F8F" transform="matrix(1 0 0 -1 1415 1715.25)"/><path d="M1415 1709.84 2718.2 1709.84 2718.2 1720.16 1415 1720.16ZM2713.04 1699.53 2743.98 1715 2713.04 1730.47Z" fill="#0A1F8F"/><path d="M2050 574 2050 1715.25" stroke="#0A1F8F" stroke-width="2.29167" stroke-miterlimit="8" fill="none" fill-rule="evenodd"/><path d="M1415 1120 2743.98 1120" stroke="#0A1F8F" stroke-width="2.29167" stroke-miterlimit="8" fill="none" fill-rule="evenodd"/><rect x="1440" y="1145" width="588" height="545" fill="#00B050" fill-opacity="0.258824"/><rect x="1444" y="579" width="588" height="516" fill="#FFC000" fill-opacity="0.219608"/><rect x="2079" y="1145" width="633" height="545" fill="#FFC000" fill-opacity="0.219608"/><rect x="2079" y="575" width="633" height="520" fill="#FF0000" fill-opacity="0.239216"/></g></svg>